<svg version="1.1"  xmlns="http://www.w3.org/2000/svg"  x="0px" y="0px"
	 viewBox="0 0 256 256" style="enable-background:new 0 0 256 256;" role="img" aria-hidden="true" focusable="false">
<g >
	<rect  fill="#F26522" width="256" height="256"/>
	<g >
		<path  fill="#FFFFFF" d="M44.1,93.9c20.9,0.7,40.3,6.4,58.1,17.1c17.8,10.7,32.1,25,42.8,42.8
			c10.7,17.8,16.4,37.2,17.1,58.1c0.1,1.3,0.6,2.5,1.5,3.4c0.9,0.9,2,1.4,3.4,1.4h19.7c1.3,0,2.5-0.5,3.5-1.5
			c0.3-0.3,0.6-0.5,0.8-0.8v-12.1c-1.2-12.5-3.8-24.6-8-36.3c-5.2-14.7-12.4-28-21.4-39.9C152.5,114,142,103.5,130,94.4
			c-11.9-9.1-25.3-16.2-39.9-21.4c-14.7-5.2-29.9-8.1-45.7-8.6c-1.4-0.1-2.6,0.4-3.5,1.4c-1,1-1.5,2.2-1.5,3.5V89
			c0,1.3,0.5,2.5,1.4,3.4S42.7,93.8,44.1,93.9z"/>
		<path  fill="#FFFFFF" d="M103.1,212c0.1,1.3,0.6,2.4,1.5,3.3c0.9,0.9,2,1.3,3.4,1.3h19.7c1.3,0,2.5-0.5,3.5-1.5
			c1-1,1.5-2.2,1.4-3.7l0,0c-1.3-23.8-10.4-44-27.2-60.8c-16.8-16.8-37.1-25.9-60.8-27.2c-1.4-0.1-2.7,0.4-3.7,1.4
			c-1,1-1.5,2.2-1.5,3.5V148c0,1.3,0.4,2.5,1.3,3.4c0.9,0.9,2,1.4,3.3,1.5c15.8,1.1,29.3,7.3,40.6,18.6
			C95.8,182.7,101.9,196.3,103.1,212z"/>
		<path  fill="#FFFFFF" d="M45.1,183.1c-3.8,3.8-5.8,8.5-5.8,13.9c0,5.4,1.9,10.1,5.8,13.9c3.8,3.8,8.5,5.8,13.9,5.8
			s10.1-1.9,13.9-5.8s5.8-8.5,5.8-13.9c0-5.4-1.9-10.1-5.8-13.9s-8.5-5.8-13.9-5.8S48.9,179.3,45.1,183.1z"/>
	</g>
	<g  transform="translate(0.000000,1052.000000) scale(0.100000,-0.100000)">
		<path d="M2099.3,10318.8c-53.5-4.2-98.5-23.5-131.9-56.7c-34.4-34.1-50.9-75.8-50.9-128.6c0-79,32.4-134.3,104.8-178.1
			c18.4-11,43.5-23.1,86.8-41.8c59.1-25.4,81-37.4,95.1-52.4c17.3-18.6,22.1-48.2,11.2-70.8c-2.1-4.4-7.6-11.8-12.6-16.7
			c-16.7-16.9-43.1-25.8-75.8-25.8c-55.2,0-96.5,22.7-129.6,71.7c-4.5,6.5-8.6,11.9-9.2,11.9c-1.3,0-109.1-62.2-111.3-64.3
			c-1.4-1.3-0.3-4.2,5.2-13.3c43.1-72.5,110.4-115,201.3-127.2c23.8-3.3,68.4-3.1,91.2,0c57.2,8.1,100.2,27.1,133.4,59.4
			c35.4,34.1,52.8,78.3,52.8,133.7c0,35.4-5.8,63-19,90.4c-9.1,18.7-18.1,31.3-33.7,47.2c-29.9,30.3-68.6,53.3-145.8,86.4
			c-58.4,25.1-77.9,35.8-90.8,49.6c-12.3,13.2-17.6,28.6-16.4,47.9c1,15.3,5.2,25.6,14.6,35.7c13.5,14.6,29,20.7,53.1,20.5
			c27.3,0,45-7.1,63-25.2c6.4-6.2,14.6-16.3,18.4-22.4c4.4-6.9,7.6-10.8,8.8-10.3c3.7,1.6,106.7,68.1,106.7,69.1
			c0,0.6-5.2,8.8-11.6,18.4c-13.6,20.4-38.1,45.9-55,57.1c-31.2,20.7-64.5,31.3-108.4,34.6
			C2122.4,10320.4,2119.6,10320.4,2099.3,10318.8z"/>
		<path d="M1658.4,10061.5l-0.4-250.5l-3.1-11.8c-4.1-15.4-8.9-24.6-17.4-33.1c-11.9-11.9-27.2-16.9-52.7-17
			c-36.4-0.1-58.2,15.3-83.6,58.6c-4.1,6.8-7.8,12.3-8.2,12.2c-0.6-0.3-26.2-15.7-56.9-34.3l-56-34l4.2-8.5
			c25.4-50.6,69.3-88.8,122.1-106.4c55.8-18.6,127.5-16.9,180,4.2c63,25.5,100,78.2,109.8,156.5c0.8,7.9,1.4,96.5,1.4,263.1v251.2
			h-69.4h-69.3L1658.4,10061.5z"/>
	</g>
</g>
</svg>
